# Blender v2.79 (sub 0) OBJ File: 'Bench.blend'
# www.blender.org
mtllib Bench.mtl
o Cube
v 1.997732 0.728262 -0.119566
v 1.997732 0.728262 0.119566
v -1.997733 0.728262 0.119566
v -1.997732 0.728262 -0.119566
v 1.997733 0.788028 -0.119565
v 1.997731 0.788028 0.119566
v -1.997733 0.788028 0.119565
v -1.997732 0.788028 -0.119566
v 1.997732 0.728262 -0.398107
v 1.997732 0.728262 -0.158976
v -1.997733 0.728262 -0.158976
v -1.997732 0.728262 -0.398107
v 1.997733 0.788028 -0.398107
v 1.997731 0.788028 -0.158976
v -1.997733 0.788028 -0.158976
v -1.997732 0.788028 -0.398107
v 1.997732 0.728262 0.165127
v 1.997732 0.728262 0.404258
v -1.997733 0.728262 0.404258
v -1.997732 0.728262 0.165127
v 1.997733 0.788028 0.165127
v 1.997731 0.788028 0.404259
v -1.997733 0.788028 0.404258
v -1.997732 0.788028 0.165127
v 1.997732 0.700996 -0.443017
v 1.997733 0.815294 -0.443017
v 2.095866 0.700997 -0.443015
v 2.095867 0.815294 -0.443015
v 1.997722 1.678874 0.752206
v 1.997721 1.717543 0.647505
v 2.095856 1.678875 0.752208
v 2.095855 1.717543 0.647507
v 1.997732 0.700996 0.402832
v 1.997731 0.822931 0.554815
v 1.997732 0.736710 0.498653
v 1.997730 0.937228 0.467555
v 1.997732 0.815294 0.315572
v 1.997731 0.851007 0.411393
v 2.095865 0.822931 0.554817
v 2.095866 0.700997 0.402834
v 2.095866 0.736710 0.498655
v 2.095865 0.815294 0.315574
v 2.095864 0.937229 0.467557
v 2.095865 0.851008 0.411395
v 2.005381 0.700996 -0.325384
v 2.077114 0.700997 -0.325384
v 2.005381 0.700996 -0.196206
v 2.077114 0.700997 -0.196206
v 2.077118 -0.009304 -0.417140
v 2.005385 -0.009304 -0.417140
v 2.005385 -0.009304 -0.287962
v 2.077118 -0.009304 -0.287962
v 2.005381 0.700996 0.393520
v 2.077114 0.700997 0.393519
v 2.005381 0.700996 0.264342
v 2.077114 0.700997 0.264341
v 2.077118 -0.009304 0.485276
v 2.005385 -0.009304 0.485276
v 2.005385 -0.009304 0.356098
v 2.077118 -0.009304 0.356097
v 1.997732 1.146991 0.609162
v 1.997732 1.380455 0.660915
v -1.997733 1.380455 0.660915
v -1.997732 1.146991 0.609162
v 1.997733 1.159926 0.550813
v 1.997731 1.393390 0.602566
v -1.997733 1.393389 0.602566
v -1.997732 1.159926 0.550813
v 1.997732 0.875051 0.548880
v 1.997732 1.108515 0.600632
v -1.997733 1.108515 0.600632
v -1.997732 0.875051 0.548880
v 1.997733 0.887985 0.490531
v 1.997731 1.121449 0.542284
v -1.997733 1.121449 0.542283
v -1.997732 0.887985 0.490531
v 1.997732 1.424937 0.670775
v 1.997732 1.658401 0.722528
v -1.997733 1.658401 0.722528
v -1.997732 1.424937 0.670775
v 1.997733 1.437872 0.612426
v 1.997731 1.671335 0.664179
v -1.997733 1.671335 0.664179
v -1.997732 1.437872 0.612426
v -1.997732 0.700996 -0.443017
v -1.997733 0.815294 -0.443017
v -2.095866 0.700997 -0.443015
v -2.095867 0.815294 -0.443015
v -1.997722 1.678874 0.752206
v -1.997721 1.717543 0.647505
v -2.095856 1.678875 0.752208
v -2.095855 1.717543 0.647507
v -1.997732 0.700996 0.402832
v -1.997731 0.822931 0.554815
v -1.997732 0.736710 0.498653
v -1.997730 0.937228 0.467555
v -1.997732 0.815294 0.315572
v -1.997731 0.851007 0.411393
v -2.095865 0.822931 0.554817
v -2.095866 0.700997 0.402834
v -2.095866 0.736710 0.498655
v -2.095865 0.815294 0.315574
v -2.095864 0.937229 0.467557
v -2.095865 0.851008 0.411395
v -2.005381 0.700996 -0.325384
v -2.077114 0.700997 -0.325384
v -2.005381 0.700996 -0.196206
v -2.077114 0.700997 -0.196206
v -2.077118 -0.009304 -0.417140
v -2.005385 -0.009304 -0.417140
v -2.005385 -0.009304 -0.287962
v -2.077118 -0.009304 -0.287962
v -2.005381 0.700996 0.393520
v -2.077114 0.700997 0.393519
v -2.005381 0.700996 0.264342
v -2.077114 0.700997 0.264341
v -2.077118 -0.009304 0.485276
v -2.005385 -0.009304 0.485276
v -2.005385 -0.009304 0.356098
v -2.077118 -0.009304 0.356097
vt 0.610101 0.721239
vt 0.566689 0.721239
vt 0.566689 0.000000
vt 0.610101 0.000000
vt 0.696793 0.000000
vt 0.696793 0.721239
vt 0.653447 0.721239
vt 0.653447 0.000000
vt 0.354664 0.454200
vt 0.343814 0.454200
vt 0.343814 0.411033
vt 0.354664 0.411033
vt 0.042941 1.000000
vt 0.032230 1.000000
vt 0.032230 0.278761
vt 0.042941 0.278761
vt 0.331406 0.454200
vt 0.320556 0.454200
vt 0.320556 0.411033
vt 0.331406 0.411033
vt 0.000000 0.278761
vt 0.010743 0.278761
vt 0.010744 1.000000
vt 0.000000 1.000000
vt 0.566689 0.721239
vt 0.523278 0.721239
vt 0.523278 0.000000
vt 0.566689 0.000000
vt 0.740139 0.000000
vt 0.740139 0.721239
vt 0.696793 0.721239
vt 0.696793 0.000000
vt 0.298857 0.454200
vt 0.288007 0.454200
vt 0.288007 0.411033
vt 0.298857 0.411033
vt 0.064361 1.000000
vt 0.053651 1.000000
vt 0.053651 0.278761
vt 0.064361 0.278761
vt 0.288007 0.454200
vt 0.277157 0.454200
vt 0.277157 0.411033
vt 0.288007 0.411033
vt 0.032230 1.000000
vt 0.021487 0.999999
vt 0.021487 0.278761
vt 0.032230 0.278761
vt 0.523278 0.721239
vt 0.479866 0.721239
vt 0.479866 0.000000
vt 0.523278 0.000000
vt 0.653447 0.000000
vt 0.653447 0.721239
vt 0.610101 0.721239
vt 0.610101 0.000000
vt 0.449183 0.432406
vt 0.460033 0.432406
vt 0.460033 0.475573
vt 0.449183 0.475572
vt 0.053651 1.000000
vt 0.042941 1.000000
vt 0.042941 0.278761
vt 0.053651 0.278761
vt 0.438333 0.475573
vt 0.427484 0.475573
vt 0.427484 0.432406
vt 0.438333 0.432406
vt 0.010744 0.278761
vt 0.021487 0.278761
vt 0.021487 0.999999
vt 0.010744 1.000000
vt 0.128222 0.295746
vt 0.146037 0.295746
vt 0.146037 0.453966
vt 0.128222 0.453966
vt 0.125527 0.152813
vt 0.151612 0.153829
vt 0.239933 0.268648
vt 0.222408 0.278761
vt 0.409668 0.422776
vt 0.391853 0.422776
vt 0.391853 0.278761
vt 0.409668 0.278761
vt 0.391853 0.460034
vt 0.391853 0.439604
vt 0.409668 0.439604
vt 0.409668 0.460034
vt 0.223946 0.000000
vt 0.239933 0.013152
vt 0.152145 0.118659
vt 0.126060 0.117643
vt 0.343912 0.278761
vt 0.246027 0.161117
vt 0.272112 0.160101
vt 0.359900 0.265608
vt 0.146037 0.453966
vt 0.146037 0.473221
vt 0.128222 0.473221
vt 0.128222 0.453966
vt 0.463114 0.278761
vt 0.463114 0.415490
vt 0.445299 0.415490
vt 0.445299 0.278761
vt 0.271579 0.124932
vt 0.245494 0.125948
vt 0.342374 0.000000
vt 0.359900 0.010113
vt 0.266018 0.142665
vt 0.239933 0.143681
vt 0.146052 0.136096
vt 0.119967 0.135080
vt 0.409668 0.439604
vt 0.391853 0.439604
vt 0.463114 0.432406
vt 0.445299 0.432406
vt 0.391853 0.296090
vt 0.374038 0.296090
vt 0.374038 0.278761
vt 0.391853 0.278761
vt 0.128222 0.278761
vt 0.146037 0.278761
vt 0.391853 0.448776
vt 0.374038 0.448776
vt 0.187110 0.411033
vt 0.187110 0.281748
vt 0.210368 0.278761
vt 0.210368 0.408046
vt 0.332964 0.411033
vt 0.309707 0.408046
vt 0.309707 0.278761
vt 0.332964 0.281748
vt 0.476136 0.537313
vt 0.463114 0.537313
vt 0.463114 0.408037
vt 0.476137 0.408037
vt 0.286449 0.408046
vt 0.263191 0.411033
vt 0.263191 0.281748
vt 0.286449 0.278761
vt 0.176875 0.411033
vt 0.189897 0.411033
vt 0.189897 0.540251
vt 0.176875 0.540251
vt 0.210368 0.534954
vt 0.210368 0.411033
vt 0.223390 0.411033
vt 0.223390 0.534954
vt 0.210368 0.408046
vt 0.210368 0.278761
vt 0.233626 0.281748
vt 0.233626 0.411033
vt 0.189897 0.535680
vt 0.189897 0.411033
vt 0.202919 0.411033
vt 0.202919 0.535680
vt 0.740139 0.000000
vt 0.783479 0.000000
vt 0.783479 0.721239
vt 0.740139 0.721239
vt 1.000000 0.000000
vt 1.000000 0.721239
vt 0.956720 0.721239
vt 0.956720 0.000000
vt 0.234240 0.454200
vt 0.223390 0.454200
vt 0.223390 0.411033
vt 0.234240 0.411033
vt 0.085773 1.000000
vt 0.075067 1.000000
vt 0.075067 0.278761
vt 0.085773 0.278761
vt 0.265978 0.411033
vt 0.276828 0.411033
vt 0.276828 0.454200
vt 0.265978 0.454200
vt 0.128222 1.000000
vt 0.117641 1.000000
vt 0.117641 0.278761
vt 0.128221 0.278761
vt 0.826819 0.721239
vt 0.783479 0.721239
vt 0.783479 0.000000
vt 0.826819 0.000000
vt 0.913439 0.000000
vt 0.913440 0.721239
vt 0.870159 0.721239
vt 0.870159 0.000000
vt 0.298857 0.411033
vt 0.309707 0.411033
vt 0.309707 0.454200
vt 0.298857 0.454200
vt 0.096479 1.000000
vt 0.085773 1.000000
vt 0.085773 0.278761
vt 0.096479 0.278761
vt 0.320556 0.454200
vt 0.309707 0.454200
vt 0.309707 0.411033
vt 0.320556 0.411033
vt 0.107060 1.000000
vt 0.096479 1.000000
vt 0.096479 0.278761
vt 0.107060 0.278761
vt 0.826819 0.000000
vt 0.870159 0.000000
vt 0.870159 0.721239
vt 0.826819 0.721239
vt 0.956720 0.000000
vt 0.956720 0.721239
vt 0.913440 0.721239
vt 0.913440 0.000000
vt 0.438333 0.432406
vt 0.449183 0.432406
vt 0.449183 0.475573
vt 0.438333 0.475573
vt 0.075067 1.000000
vt 0.064361 1.000000
vt 0.064361 0.278761
vt 0.075067 0.278761
vt 0.332964 0.411033
vt 0.343814 0.411033
vt 0.343814 0.454200
vt 0.332964 0.454200
vt 0.117641 1.000000
vt 0.107060 1.000000
vt 0.107060 0.278761
vt 0.117641 0.278761
vt 0.146037 0.436981
vt 0.146037 0.278761
vt 0.163852 0.278761
vt 0.163852 0.436981
vt 0.005561 0.125948
vt 0.102441 0.000000
vt 0.119967 0.010113
vt 0.031646 0.124932
vt 0.427483 0.295589
vt 0.427483 0.439604
vt 0.409668 0.439604
vt 0.409668 0.295589
vt 0.356222 0.448776
vt 0.374038 0.448777
vt 0.374038 0.469206
vt 0.356222 0.469206
vt 0.103979 0.278761
vt 0.006093 0.161117
vt 0.032179 0.160101
vt 0.119967 0.265608
vt 0.463879 0.000000
vt 0.479866 0.013152
vt 0.392078 0.118659
vt 0.365993 0.117643
vt 0.391853 0.468032
vt 0.374038 0.468032
vt 0.374038 0.448776
vt 0.391853 0.448777
vt 0.445299 0.432406
vt 0.427484 0.432406
vt 0.427484 0.295677
vt 0.445299 0.295677
vt 0.391546 0.153829
vt 0.479866 0.268648
vt 0.462341 0.278761
vt 0.365460 0.152813
vt 0.359900 0.135080
vt 0.385985 0.136096
vt 0.000000 0.143681
vt 0.026085 0.142665
vt 0.409668 0.278761
vt 0.427483 0.278761
vt 0.445299 0.278761
vt 0.356222 0.296090
vt 0.356222 0.278761
vt 0.374038 0.278761
vt 0.374038 0.296090
vt 0.146037 0.453966
vt 0.163852 0.453966
vt 0.332964 0.278761
vt 0.356222 0.281748
vt 0.356222 0.411033
vt 0.332964 0.408046
vt 0.239933 0.411033
vt 0.239933 0.281748
vt 0.263191 0.278761
vt 0.263191 0.408046
vt 0.463114 0.408037
vt 0.463114 0.278761
vt 0.476137 0.278761
vt 0.476137 0.408037
vt 0.286449 0.408046
vt 0.286449 0.278761
vt 0.309707 0.281748
vt 0.309707 0.411033
vt 0.163852 0.540251
vt 0.163852 0.411033
vt 0.176875 0.411033
vt 0.176875 0.540251
vt 0.265978 0.534954
vt 0.252955 0.534954
vt 0.252955 0.411033
vt 0.265978 0.411033
vt 0.187110 0.408046
vt 0.163852 0.411033
vt 0.163852 0.281748
vt 0.187110 0.278761
vt 0.239933 0.411033
vt 0.252955 0.411033
vt 0.252955 0.535680
vt 0.239933 0.535680
vn 0.0000 -1.0000 0.0000
vn 0.0000 1.0000 -0.0000
vn 1.0000 0.0000 0.0000
vn -0.0000 -0.0000 1.0000
vn -1.0000 -0.0000 -0.0000
vn 0.0000 0.0000 -1.0000
vn -0.0000 -0.3913 0.9203
vn -0.0000 0.4752 0.8799
vn 0.0000 0.3913 -0.9203
vn 0.0000 0.2247 -0.9744
vn -0.0000 0.9381 0.3465
vn -0.0000 0.9841 -0.1774
vn 0.0000 0.7806 -0.6250
vn 0.0000 -0.9841 0.1774
vn -0.0000 -0.7806 0.6250
vn 0.0000 0.1281 -0.9918
vn -0.0000 -0.1281 0.9918
vn 0.0000 0.1281 0.9918
vn -0.0000 -0.1281 -0.9918
vn 0.0000 -0.2164 0.9763
vn -0.0000 0.2164 -0.9763
vn -0.0000 0.9763 0.2164
vn 0.0000 -0.9763 -0.2164
usemtl Bench
s 1
f 1/1/1 2/2/1 3/3/1 4/4/1
f 5/5/2 8/6/2 7/7/2 6/8/2
f 1/9/3 5/10/3 6/11/3 2/12/3
f 2/13/4 6/14/4 7/15/4 3/16/4
f 3/17/5 7/18/5 8/19/5 4/20/5
f 5/21/6 1/22/6 4/23/6 8/24/6
f 9/25/1 10/26/1 11/27/1 12/28/1
f 13/29/2 16/30/2 15/31/2 14/32/2
f 9/33/3 13/34/3 14/35/3 10/36/3
f 10/37/4 14/38/4 15/39/4 11/40/4
f 11/41/5 15/42/5 16/43/5 12/44/5
f 13/45/6 9/46/6 12/47/6 16/48/6
f 17/49/1 18/50/1 19/51/1 20/52/1
f 21/53/2 24/54/2 23/55/2 22/56/2
f 17/57/3 21/58/3 22/59/3 18/60/3
f 18/61/4 22/62/4 23/63/4 19/64/4
f 19/65/5 23/66/5 24/67/5 20/68/5
f 21/69/6 17/70/6 20/71/6 24/72/6
f 34/73/7 39/74/7 31/75/8 29/76/8
f 39/77/3 43/78/3 32/79/3 31/80/3
f 43/81/9 36/82/9 30/83/10 32/84/10
f 25/85/6 26/86/6 28/87/6 27/88/6
f 27/89/3 28/90/3 42/91/3 40/92/3
f 25/93/5 33/94/5 37/95/5 26/96/5
f 30/97/11 29/98/8 31/99/8 32/100/11
f 26/101/2 37/102/12 42/103/12 28/104/2
f 36/105/5 34/106/5 29/107/5 30/108/5
f 34/106/5 36/105/5 38/109/5 35/110/5
f 35/110/5 38/109/5 37/95/5 33/94/5
f 40/92/3 42/91/3 44/111/3 41/112/3
f 41/112/3 44/111/3 43/78/3 39/77/3
f 36/82/9 43/81/9 44/113/13 38/114/13
f 38/115/13 44/116/13 42/103/12 37/102/12
f 33/117/14 40/118/14 41/119/15 35/120/15
f 35/121/15 41/122/15 39/74/7 34/73/7
f 33/117/14 25/123/1 27/124/1 40/118/14
f 55/125/5 59/126/5 58/127/5 53/128/5
f 47/129/5 45/130/5 50/131/5 51/132/5
f 45/133/16 46/134/16 49/135/16 50/136/16
f 46/137/3 48/138/3 52/139/3 49/140/3
f 48/141/17 47/142/17 51/143/17 52/144/17
f 53/145/18 58/146/18 57/147/18 54/148/18
f 54/149/3 57/150/3 60/151/3 56/152/3
f 56/153/19 60/154/19 59/155/19 55/156/19
f 61/157/20 62/158/20 63/159/20 64/160/20
f 65/161/21 68/162/21 67/163/21 66/164/21
f 61/165/3 65/166/3 66/167/3 62/168/3
f 62/169/22 66/170/22 67/171/22 63/172/22
f 63/173/5 67/174/5 68/175/5 64/176/5
f 65/177/23 61/178/23 64/179/23 68/180/23
f 69/181/20 70/182/20 71/183/20 72/184/20
f 73/185/21 76/186/21 75/187/21 74/188/21
f 69/189/3 73/190/3 74/191/3 70/192/3
f 70/193/22 74/194/22 75/195/22 71/196/22
f 71/197/5 75/198/5 76/199/5 72/200/5
f 73/201/23 69/202/23 72/203/23 76/204/23
f 77/205/20 78/206/20 79/207/20 80/208/20
f 81/209/21 84/210/21 83/211/21 82/212/21
f 77/213/3 81/214/3 82/215/3 78/216/3
f 78/217/22 82/218/22 83/219/22 79/220/22
f 79/221/5 83/222/5 84/223/5 80/224/5
f 81/225/23 77/226/23 80/227/23 84/228/23
f 94/229/7 89/230/8 91/231/8 99/232/7
f 99/233/5 91/234/5 92/235/5 103/236/5
f 103/237/9 92/238/10 90/239/10 96/240/9
f 85/241/6 87/242/6 88/243/6 86/244/6
f 87/245/5 100/246/5 102/247/5 88/248/5
f 85/249/3 86/250/3 97/251/3 93/252/3
f 90/253/11 92/254/11 91/255/8 89/256/8
f 86/257/2 88/258/2 102/259/12 97/260/12
f 96/261/3 90/262/3 89/263/3 94/264/3
f 94/264/3 95/265/3 98/266/3 96/261/3
f 95/265/3 93/252/3 97/251/3 98/266/3
f 100/246/5 101/267/5 104/268/5 102/247/5
f 101/267/5 99/233/5 103/236/5 104/268/5
f 96/240/9 98/269/13 104/270/13 103/237/9
f 98/271/13 97/260/12 102/259/12 104/270/13
f 93/272/14 95/273/15 101/274/15 100/275/14
f 95/276/15 94/229/7 99/232/7 101/277/15
f 93/272/14 100/275/14 87/242/1 85/241/1
f 115/278/3 113/279/3 118/280/3 119/281/3
f 107/282/3 111/283/3 110/284/3 105/285/3
f 105/286/16 110/287/16 109/288/16 106/289/16
f 106/290/5 109/291/5 112/292/5 108/293/5
f 108/294/17 112/295/17 111/296/17 107/297/17
f 113/298/18 114/299/18 117/300/18 118/301/18
f 114/302/5 116/303/5 120/304/5 117/305/5
f 116/306/19 115/307/19 119/308/19 120/309/19
