# Blender v2.79 (sub 0) OBJ File: 'Fence.blend'
# www.blender.org
mtllib Fence.mtl
o Cube
v 0.038538 1.348766 -2.061451
v 0.038538 1.430975 2.061450
v -0.038538 1.430975 2.061450
v -0.038538 1.348766 -2.061451
v 0.034101 1.667822 -2.060770
v 0.038538 1.738429 2.061452
v -0.038538 1.738429 2.061450
v -0.042975 1.667822 -2.060771
v 0.001435 0.000000 1.776237
v 0.092314 1.851693 1.830441
v 0.059961 0.000000 1.810026
v 0.129981 1.851693 1.852188
v 0.059961 0.000000 1.877606
v 0.129981 1.851693 1.895682
v 0.001435 0.000000 1.911396
v 0.092314 1.851693 1.917429
v -0.057091 0.000000 1.877606
v 0.054647 1.851693 1.895682
v -0.057091 0.000000 1.810026
v 0.054647 1.851693 1.852188
v 0.116636 1.879097 1.859893
v 0.092314 1.879097 1.845850
v 0.116636 1.879097 1.887978
v 0.092314 1.879097 1.902020
v 0.067991 1.879097 1.887978
v 0.067991 1.879097 1.859893
v 0.026134 0.604777 1.809203
v 0.070742 0.604777 1.834958
v 0.070742 0.604777 1.886466
v 0.026134 0.604777 1.912220
v -0.018474 0.604777 1.886466
v -0.018474 0.604777 1.834958
v 0.044973 1.221665 1.825143
v 0.086166 1.221665 1.848925
v 0.086166 1.221665 1.896491
v 0.044973 1.221665 1.920274
v 0.003780 1.221665 1.896491
v 0.003780 1.221665 1.848925
v 0.037076 1.380655 -0.727839
v 0.039731 1.393466 0.692383
v -0.037345 1.393466 0.692383
v -0.039999 1.380655 -0.727839
v 0.032639 1.699711 -0.727157
v 0.039731 1.700920 0.692384
v -0.037345 1.700919 0.692383
v -0.044436 1.699710 -0.727159
v 0.101433 0.000000 -1.840664
v 0.010554 1.851693 -1.894869
v 0.042907 0.000000 -1.874454
v -0.027113 1.851693 -1.916616
v 0.042907 0.000000 -1.942034
v -0.027113 1.851693 -1.960110
v 0.101433 0.000000 -1.975824
v 0.010554 1.851693 -1.981857
v 0.159959 0.000000 -1.942034
v 0.048221 1.851693 -1.960110
v 0.159959 0.000000 -1.874454
v 0.048221 1.851693 -1.916616
v -0.013768 1.879097 -1.924320
v 0.010554 1.879097 -1.910278
v -0.013768 1.879097 -1.952405
v 0.010554 1.879097 -1.966448
v 0.034877 1.879097 -1.952405
v 0.034877 1.879097 -1.924320
v 0.076734 0.604777 -1.873631
v 0.032126 0.604777 -1.899385
v 0.032126 0.604777 -1.950894
v 0.076734 0.604777 -1.976648
v 0.121342 0.604777 -1.950894
v 0.121342 0.604777 -1.899385
v 0.057894 1.221665 -1.889570
v 0.016701 1.221665 -1.913353
v 0.016701 1.221665 -1.960919
v 0.057894 1.221665 -1.984702
v 0.099087 1.221665 -1.960919
v 0.099087 1.221665 -1.913353
v -0.040890 0.840478 2.040463
v -0.040891 0.992158 -2.080467
v 0.036185 0.992158 -2.080467
v 0.036185 0.840478 2.040463
v -0.036454 1.159500 2.045159
v -0.040891 1.299567 -2.075288
v 0.036185 1.299567 -2.075286
v 0.040622 1.159500 2.045160
v -0.039429 0.894837 0.707577
v -0.042084 0.931582 -0.712226
v 0.034992 0.931581 -0.712226
v 0.037647 0.894837 0.707578
v -0.034992 1.213860 0.712273
v -0.042084 1.238991 -0.707046
v 0.034992 1.238991 -0.707045
v 0.042084 1.213859 0.712275
v 0.038537 0.401121 -2.061592
v 0.038538 0.480368 2.061368
v -0.038537 0.480368 2.061368
v -0.038538 0.401121 -2.061592
v 0.034100 0.720176 -2.060681
v 0.038538 0.787822 2.061590
v -0.038537 0.787822 2.061589
v -0.042975 0.720176 -2.060683
v 0.037076 0.432052 -0.727957
v 0.039731 0.443843 0.692274
v -0.037345 0.443843 0.692273
v -0.040000 0.432052 -0.727957
v 0.032639 0.751107 -0.727046
v 0.039731 0.751296 0.692496
v -0.037345 0.751296 0.692494
v -0.044436 0.751107 -0.727048
vt 0.646790 0.667094
vt 0.645376 0.998810
vt 0.584357 0.998802
vt 0.585771 0.667086
vt 0.584156 0.331689
vt 0.523138 0.331728
vt 0.519977 0.000039
vt 0.580995 0.000000
vt 0.260582 0.332909
vt 0.017518 0.331704
vt 0.005362 0.000000
vt 0.248426 0.001205
vt 1.000000 0.077525
vt 1.000000 0.151993
vt 0.938981 0.151993
vt 0.938981 0.077525
vt 0.511883 0.323094
vt 0.260582 0.324503
vt 0.268520 0.001409
vt 0.519821 0.000000
vt 0.999994 0.000260
vt 0.999994 0.077525
vt 0.938981 0.077265
vt 0.938981 0.000000
vt 0.690995 0.159939
vt 0.709604 0.007033
vt 0.739391 0.006556
vt 0.723570 0.159418
vt 0.901329 0.158792
vt 0.896228 0.006925
vt 0.930657 0.006762
vt 0.938981 0.158614
vt 0.816176 0.297009
vt 0.831991 0.449899
vt 0.802191 0.449569
vt 0.783586 0.296648
vt 0.772394 0.449209
vt 0.751000 0.296255
vt 0.801372 0.456191
vt 0.782132 0.455959
vt 0.885486 0.296355
vt 0.877120 0.449426
vt 0.842691 0.449263
vt 0.847834 0.296177
vt 0.658394 0.160171
vt 0.679793 0.007245
vt 0.958235 0.151993
vt 0.977490 0.155394
vt 0.977490 0.162197
vt 0.958236 0.165597
vt 0.938981 0.162196
vt 0.938981 0.155394
vt 0.901980 0.000106
vt 0.924211 0.000000
vt 0.870676 0.456288
vt 0.848445 0.456183
vt 0.708776 0.000308
vt 0.728010 0.000000
vt 0.820615 0.456404
vt 0.689527 0.000445
vt 0.646790 0.456558
vt 0.659242 0.309722
vt 0.694546 0.309470
vt 0.693109 0.456229
vt 0.885486 0.000253
vt 0.885092 0.147011
vt 0.844319 0.146819
vt 0.831991 0.000000
vt 0.785689 0.000558
vt 0.787137 0.147162
vt 0.751849 0.146737
vt 0.739391 0.000000
vt 0.831991 0.001071
vt 0.822428 0.147553
vt 0.885486 0.454110
vt 0.897820 0.307867
vt 0.938593 0.307673
vt 0.938981 0.453856
vt 0.729822 0.308906
vt 0.739391 0.455487
vt 0.507887 0.998793
vt 0.265424 0.999994
vt 0.277358 0.668291
vt 0.519821 0.667090
vt 0.260582 1.000000
vt 0.008178 0.998584
vt 0.000000 0.675488
vt 0.252404 0.676904
vt 0.584156 0.998577
vt 0.523137 0.998615
vt 0.519821 0.675531
vt 0.580840 0.675492
vt 0.646790 0.000008
vt 0.645175 0.323111
vt 0.584156 0.323103
vt 0.585771 0.000000
vt 0.690995 0.159939
vt 0.709604 0.007033
vt 0.739391 0.006556
vt 0.723570 0.159418
vt 0.901329 0.158792
vt 0.896228 0.006925
vt 0.930657 0.006762
vt 0.938981 0.158614
vt 0.816176 0.297009
vt 0.831991 0.449899
vt 0.802191 0.449569
vt 0.783586 0.296648
vt 0.772394 0.449209
vt 0.751000 0.296255
vt 0.801372 0.456191
vt 0.782132 0.455959
vt 0.885486 0.296355
vt 0.877120 0.449426
vt 0.842691 0.449263
vt 0.847834 0.296177
vt 0.658394 0.160171
vt 0.679793 0.007245
vt 0.958235 0.151993
vt 0.977490 0.155394
vt 0.977490 0.162197
vt 0.958236 0.165597
vt 0.938981 0.162196
vt 0.938981 0.155394
vt 0.901980 0.000106
vt 0.924211 0.000000
vt 0.870676 0.456288
vt 0.848445 0.456183
vt 0.708776 0.000308
vt 0.728010 0.000000
vt 0.820615 0.456404
vt 0.689527 0.000445
vt 0.646790 0.456558
vt 0.659242 0.309722
vt 0.694546 0.309470
vt 0.693109 0.456229
vt 0.885486 0.000253
vt 0.885092 0.147011
vt 0.844319 0.146819
vt 0.831991 0.000000
vt 0.785689 0.000558
vt 0.787137 0.147162
vt 0.751849 0.146737
vt 0.739391 0.000000
vt 0.831991 0.001071
vt 0.822428 0.147553
vt 0.885486 0.454110
vt 0.897820 0.307867
vt 0.938593 0.307673
vt 0.938981 0.453856
vt 0.729822 0.308906
vt 0.739391 0.455487
vt 0.646790 0.667094
vt 0.645376 0.998810
vt 0.584357 0.998802
vt 0.585771 0.667086
vt 0.584156 0.331689
vt 0.523138 0.331728
vt 0.519977 0.000039
vt 0.580995 0.000000
vt 0.260582 0.332909
vt 0.017518 0.331704
vt 0.005362 0.000000
vt 0.248426 0.001205
vt 1.000000 0.077525
vt 1.000000 0.151993
vt 0.938981 0.151993
vt 0.938981 0.077525
vt 0.511883 0.323094
vt 0.260582 0.324503
vt 0.268520 0.001409
vt 0.519821 0.000000
vt 0.999994 0.000260
vt 0.999994 0.077525
vt 0.938981 0.077265
vt 0.938981 0.000000
vt 0.507887 0.998793
vt 0.265424 0.999994
vt 0.277358 0.668291
vt 0.519821 0.667090
vt 0.260582 1.000000
vt 0.008178 0.998584
vt 0.000000 0.675488
vt 0.252404 0.676904
vt 0.584156 0.998577
vt 0.523137 0.998615
vt 0.519821 0.675531
vt 0.580840 0.675492
vt 0.646790 0.000008
vt 0.645175 0.323111
vt 0.584156 0.323103
vt 0.585771 0.000000
vt 0.646790 0.667094
vt 0.645376 0.998810
vt 0.584357 0.998802
vt 0.585771 0.667086
vt 0.584156 0.331689
vt 0.523138 0.331728
vt 0.519977 0.000039
vt 0.580995 0.000000
vt 0.260582 0.332909
vt 0.017518 0.331704
vt 0.005362 0.000000
vt 0.248426 0.001205
vt 1.000000 0.077525
vt 1.000000 0.151993
vt 0.938981 0.151993
vt 0.938981 0.077525
vt 0.511883 0.323094
vt 0.260582 0.324503
vt 0.268520 0.001409
vt 0.519821 0.000000
vt 0.999994 0.000260
vt 0.999994 0.077525
vt 0.938981 0.077265
vt 0.938981 0.000000
vt 0.507887 0.998793
vt 0.265424 0.999994
vt 0.277358 0.668291
vt 0.519821 0.667090
vt 0.260582 1.000000
vt 0.008178 0.998584
vt 0.000000 0.675488
vt 0.252404 0.676904
vt 0.584156 0.998577
vt 0.523137 0.998615
vt 0.519821 0.675531
vt 0.580840 0.675492
vt 0.646790 0.000008
vt 0.645175 0.323111
vt 0.584156 0.323103
vt 0.585771 0.000000
vn 0.0000 -0.9998 0.0182
vn 0.0000 -0.9996 0.0274
vn -0.0000 0.9999 -0.0141
vn -0.0000 0.9996 -0.0274
vn 1.0000 0.0036 -0.0013
vn 1.0000 0.0035 -0.0013
vn 1.0000 0.0000 0.0009
vn -0.0000 -0.0000 1.0000
vn -0.9999 -0.0105 0.0013
vn -0.9999 -0.0105 0.0014
vn -0.9999 -0.0139 -0.0008
vn 0.0000 0.0021 -1.0000
vn -0.0069 0.0179 -0.9998
vn 0.0133 0.2387 -0.9710
vn 0.8505 0.2077 -0.4833
vn 0.8648 -0.0341 -0.5010
vn 0.8504 0.2068 0.4839
vn 0.8621 -0.0446 0.5048
vn 0.0132 0.2368 0.9715
vn -0.0071 -0.0035 1.0000
vn -0.8304 0.2694 0.4877
vn -0.8654 0.0465 0.4989
vn 0.0000 0.7931 0.6091
vn -0.5275 0.7931 0.3046
vn -0.8305 0.2704 -0.4870
vn -0.8674 0.0573 -0.4943
vn 0.5275 0.7931 -0.3046
vn 0.0000 0.7931 -0.6091
vn -0.5275 0.7931 -0.3046
vn 0.5275 0.7931 0.3046
vn -0.8630 0.0757 -0.4996
vn -0.8647 0.0594 -0.4988
vn 0.0020 0.0402 -0.9992
vn -0.0126 0.0549 -0.9984
vn -0.8718 0.0485 0.4874
vn -0.8643 0.0355 0.5017
vn -0.0130 -0.0008 0.9999
vn 0.0016 -0.0073 1.0000
vn 0.8664 -0.0228 0.4988
vn 0.8656 -0.0263 0.5001
vn 0.8588 0.0058 -0.5122
vn 0.8670 -0.0027 -0.4983
vn -1.0000 -0.0000 -0.0009
vn -1.0000 -0.0035 0.0013
vn -1.0000 -0.0036 0.0013
vn 0.9999 0.0139 0.0008
vn 0.9999 0.0105 -0.0014
vn 0.9999 0.0105 -0.0013
vn -0.0000 0.9997 -0.0239
vn -0.0000 0.9999 -0.0124
vn 0.0000 -0.9997 0.0239
vn 0.0000 -0.9999 0.0165
vn 0.0069 0.0179 0.9998
vn -0.0133 0.2387 0.9710
vn -0.8505 0.2077 0.4833
vn -0.8648 -0.0341 0.5010
vn -0.8504 0.2068 -0.4839
vn -0.8621 -0.0446 -0.5048
vn -0.0132 0.2368 -0.9715
vn 0.0071 -0.0035 -1.0000
vn 0.8304 0.2694 -0.4877
vn 0.8654 0.0465 -0.4989
vn 0.8305 0.2704 0.4870
vn 0.8674 0.0573 0.4943
vn 0.8630 0.0757 0.4996
vn 0.8647 0.0594 0.4988
vn -0.0020 0.0402 0.9992
vn 0.0126 0.0549 0.9984
vn 0.8718 0.0485 -0.4874
vn 0.8643 0.0355 -0.5017
vn 0.0130 -0.0008 -0.9999
vn -0.0016 -0.0073 -1.0000
vn -0.8664 -0.0228 -0.4988
vn -0.8656 -0.0263 -0.5001
vn -0.8588 0.0058 0.5122
vn -0.8670 -0.0027 0.4983
vn -0.0000 -0.9994 -0.0351
vn -0.0000 -0.9990 -0.0442
vn -0.0000 -0.9994 -0.0350
vn 0.0000 0.9995 0.0310
vn -0.0000 0.9990 0.0442
vn -1.0000 0.0036 0.0014
vn -1.0000 0.0035 0.0013
vn 0.0000 0.0169 -0.9999
vn 0.9999 -0.0105 -0.0015
vn 0.9999 -0.0104 -0.0015
vn 0.9999 -0.0139 0.0005
vn -0.0000 -0.0147 0.9999
vn 1.0000 -0.0035 -0.0013
vn 1.0000 -0.0036 -0.0014
vn -0.9999 0.0139 -0.0005
vn -0.9999 0.0104 0.0015
vn -0.9999 0.0105 0.0015
vn 0.0000 0.9992 0.0407
vn 0.0000 0.9996 0.0292
vn -0.0000 -0.9992 -0.0407
vn -0.0000 -0.9994 -0.0333
vn 0.0000 -0.9998 0.0175
vn 0.0000 -0.9996 0.0267
vn -0.0000 0.9999 -0.0134
vn 0.0000 0.9996 -0.0267
vn -0.0000 -0.0007 1.0000
vn 0.0000 0.0029 -1.0000
vn -0.0000 0.9997 -0.0232
vn -0.0000 0.9999 -0.0117
vn -0.0000 0.9999 -0.0116
vn 0.0000 -0.9997 0.0232
vn 0.0000 -0.9999 0.0157
usemtl Fence
s 1
f 40/1/1 2/2/2 3/3/2 41/4/1
f 44/5/3 45/6/3 7/7/4 6/8/4
f 40/9/5 44/10/6 6/11/7 2/12/7
f 2/13/8 6/14/8 7/15/8 3/16/8
f 42/17/9 46/18/10 8/19/11 4/20/11
f 5/21/12 1/22/12 4/23/12 8/24/12
f 33/25/13 10/26/14 12/27/15 34/28/16
f 34/29/16 12/30/15 14/31/17 35/32/18
f 35/33/18 14/34/17 16/35/19 36/36/20
f 36/36/20 16/35/19 18/37/21 37/38/22
f 18/37/21 16/35/19 24/39/23 25/40/24
f 37/41/22 18/42/21 20/43/25 38/44/26
f 38/45/26 20/46/25 10/26/14 33/25/13
f 21/47/27 22/48/28 26/49/29 25/50/24 24/51/23 23/52/30
f 14/31/17 12/30/15 21/53/27 23/54/30
f 20/43/25 18/42/21 25/55/24 26/56/29
f 12/27/15 10/26/14 22/57/28 21/58/27
f 16/35/19 14/34/17 23/59/30 24/39/23
f 10/26/14 20/46/25 26/60/29 22/57/28
f 19/61/31 32/62/32 27/63/33 9/64/34
f 17/65/35 31/66/36 32/67/32 19/68/31
f 15/69/37 30/70/38 31/71/36 17/72/35
f 13/73/39 29/74/40 30/70/38 15/69/37
f 11/75/41 28/76/42 29/77/40 13/78/39
f 9/64/34 27/63/33 28/79/42 11/80/41
f 32/62/32 38/45/26 33/25/13 27/63/33
f 31/66/36 37/41/22 38/44/26 32/67/32
f 30/70/38 36/36/20 37/38/22 31/71/36
f 29/74/40 35/33/18 36/36/20 30/70/38
f 28/76/42 34/29/16 35/32/18 29/77/40
f 27/63/33 33/25/13 34/28/16 28/79/42
f 3/81/43 7/82/43 45/83/44 41/84/45
f 41/84/45 45/83/44 46/18/10 42/17/9
f 1/85/46 5/86/46 43/87/47 39/88/48
f 39/88/48 43/87/47 44/10/6 40/9/5
f 5/89/49 8/90/49 46/91/50 43/92/50
f 43/92/50 46/91/50 45/6/3 44/5/3
f 1/93/51 39/94/52 42/95/52 4/96/51
f 39/94/52 40/1/1 41/4/1 42/95/52
f 71/97/53 48/98/54 50/99/55 72/100/56
f 72/101/56 50/102/55 52/103/57 73/104/58
f 73/105/58 52/106/57 54/107/59 74/108/60
f 74/108/60 54/107/59 56/109/61 75/110/62
f 56/109/61 54/107/59 62/111/28 63/112/27
f 75/113/62 56/114/61 58/115/63 76/116/64
f 76/117/64 58/118/63 48/98/54 71/97/53
f 59/119/24 60/120/23 64/121/30 63/122/27 62/123/28 61/124/29
f 52/103/57 50/102/55 59/125/24 61/126/29
f 58/115/63 56/114/61 63/127/27 64/128/30
f 50/99/55 48/98/54 60/129/23 59/130/24
f 54/107/59 52/106/57 61/131/29 62/111/28
f 48/98/54 58/118/63 64/132/30 60/129/23
f 57/133/65 70/134/66 65/135/67 47/136/68
f 55/137/69 69/138/70 70/139/66 57/140/65
f 53/141/71 68/142/72 69/143/70 55/144/69
f 51/145/73 67/146/74 68/142/72 53/141/71
f 49/147/75 66/148/76 67/149/74 51/150/73
f 47/136/68 65/135/67 66/151/76 49/152/75
f 70/134/66 76/117/64 71/97/53 65/135/67
f 69/138/70 75/113/62 76/116/64 70/139/66
f 68/142/72 74/108/60 75/110/62 69/143/70
f 67/146/74 73/105/58 74/108/60 68/142/72
f 66/148/76 72/101/56 73/104/58 67/149/74
f 65/135/67 71/97/53 72/100/56 66/151/76
f 86/153/77 78/154/78 79/155/78 87/156/79
f 90/157/80 91/158/80 83/159/81 82/160/81
f 86/161/82 90/162/83 82/163/43 78/164/43
f 78/165/84 82/166/84 83/167/84 79/168/84
f 88/169/85 92/170/86 84/171/87 80/172/87
f 81/173/88 77/174/88 80/175/88 84/176/88
f 79/177/7 83/178/7 91/179/89 87/180/90
f 87/180/90 91/179/89 92/170/86 88/169/85
f 77/181/91 81/182/91 89/183/92 85/184/93
f 85/184/93 89/183/92 90/162/83 86/161/82
f 81/185/94 84/186/94 92/187/95 89/188/95
f 89/188/95 92/187/95 91/158/80 90/157/80
f 77/189/96 85/190/97 88/191/97 80/192/96
f 85/190/97 86/153/77 87/156/79 88/191/97
f 102/193/98 94/194/99 95/195/99 103/196/98
f 106/197/100 107/198/100 99/199/101 98/200/101
f 102/201/5 106/202/6 98/203/7 94/204/7
f 94/205/102 98/206/102 99/207/102 95/208/102
f 104/209/9 108/210/10 100/211/11 96/212/11
f 97/213/103 93/214/103 96/215/103 100/216/103
f 95/217/43 99/218/43 107/219/44 103/220/45
f 103/220/45 107/219/44 108/210/10 104/209/9
f 93/221/46 97/222/46 105/223/47 101/224/48
f 101/224/48 105/223/47 106/202/6 102/201/5
f 97/225/104 100/226/104 108/227/105 105/228/106
f 105/228/106 108/227/105 107/198/100 106/197/100
f 93/229/107 101/230/108 104/231/108 96/232/107
f 101/230/108 102/193/98 103/196/98 104/231/108
