# Blender v2.79 (sub 0) OBJ File: 'Skyscraper.blend'
# www.blender.org
mtllib Skyscraper.mtl
o Skyscraper2_Cube.002
v 16.159401 6.791872 64.803253
v 17.548901 0.000000 37.254421
v 17.548901 0.000000 66.192757
v -11.389431 0.000000 37.254417
v -11.389437 -0.000000 66.192726
v 17.548901 6.791872 37.254421
v 17.548901 6.791872 66.192757
v -11.389437 6.791872 66.192726
v -11.389433 6.791872 37.254417
v -10.000001 6.791871 64.803291
v -9.999999 6.791871 38.643856
v -7.321372 92.276443 62.124657
v -7.321370 92.276443 41.322483
v 16.159401 6.791872 38.643917
v 13.480803 48.573879 62.124691
v 16.159439 48.573879 64.803322
v 13.480776 92.276436 41.322548
v 13.480803 92.276436 62.124691
v 13.480836 48.573875 41.322517
v 16.159462 48.573875 38.643879
v -7.321340 48.573872 41.322483
v -7.321312 48.573872 62.124626
v -9.999935 48.573872 64.803261
v -9.999976 48.573872 38.643856
vt 0.351182 0.553188
vt 0.012930 0.553188
vt 0.012930 0.012930
vt 0.351182 0.012930
vt 0.395009 0.960101
vt 0.733261 0.960101
vt 0.751226 0.978067
vt 0.377043 0.978067
vt 0.733261 0.621849
vt 0.395009 0.621849
vt 0.377043 0.603882
vt 0.751227 0.603883
vt 0.873387 0.787159
vt 0.785566 0.787159
vt 0.785566 0.412975
vt 0.873387 0.412975
vt 0.987070 0.387114
vt 0.899248 0.387114
vt 0.899248 0.012930
vt 0.987070 0.012930
vt 0.785566 0.012930
vt 0.873387 0.012930
vt 0.873387 0.387114
vt 0.785566 0.387114
vt 0.759705 0.387114
vt 0.671883 0.387114
vt 0.671883 0.012930
vt 0.759705 0.012930
vt 0.307771 0.882665
vt 0.307771 0.613685
vt 0.342407 0.579049
vt 0.342407 0.917300
vt 0.012930 0.579049
vt 0.281910 0.579049
vt 0.281910 0.848029
vt 0.012930 0.848029
vt 0.646022 0.578022
vt 0.377043 0.578022
vt 0.377043 0.012930
vt 0.646022 0.012930
vt 0.351182 0.553188
vt 0.012930 0.553188
vt 0.012930 0.012930
vt 0.351182 0.012930
vt 0.307771 0.882665
vt 0.307771 0.613685
vt 0.342407 0.579049
vt 0.342407 0.917300
vt 0.646022 0.578022
vt 0.377043 0.578022
vt 0.377043 0.012930
vt 0.646022 0.012930
vt 0.351182 0.553188
vt 0.012930 0.553188
vt 0.012930 0.012930
vt 0.351182 0.012930
vt 0.307771 0.882665
vt 0.307771 0.613685
vt 0.342407 0.579049
vt 0.342407 0.917300
vt 0.646022 0.578022
vt 0.377043 0.578022
vt 0.377043 0.012930
vt 0.646022 0.012930
vt 0.351182 0.553188
vt 0.012930 0.553188
vt 0.012930 0.012930
vt 0.351182 0.012930
vt 0.307771 0.882665
vt 0.307771 0.613685
vt 0.342407 0.579049
vt 0.342407 0.917300
vt 0.646022 0.578022
vt 0.377043 0.578022
vt 0.377043 0.012930
vt 0.646022 0.012930
vn 0.0000 -0.0000 1.0000
vn 0.0000 1.0000 -0.0000
vn 0.0000 0.0000 -1.0000
vn -1.0000 -0.0000 -0.0000
vn 1.0000 0.0000 0.0000
usemtl Skyscraper2
s off
f 10/1/1 1/2/1 16/3/1 23/4/1
f 10/5/2 11/6/2 9/7/2 8/8/2
f 14/9/2 1/10/2 7/11/2 6/12/2
f 6/13/3 2/14/3 4/15/3 9/16/3
f 5/17/4 8/18/4 9/19/4 4/20/4
f 3/21/1 7/22/1 8/23/1 5/24/1
f 2/25/5 6/26/5 7/27/5 3/28/5
f 1/10/2 10/5/2 8/8/2 7/11/2
f 11/6/2 14/9/2 6/12/2 9/7/2
f 15/29/2 22/30/2 23/31/2 16/32/2
f 12/33/2 18/34/2 17/35/2 13/36/2
f 22/37/1 15/38/1 18/39/1 12/40/1
f 1/41/5 14/42/5 20/43/5 16/44/5
f 19/45/2 15/46/2 16/47/2 20/48/2
f 15/49/5 19/50/5 17/51/5 18/52/5
f 14/53/3 11/54/3 24/55/3 20/56/3
f 21/57/2 19/58/2 20/59/2 24/60/2
f 19/61/3 21/62/3 13/63/3 17/64/3
f 11/65/4 10/66/4 23/67/4 24/68/4
f 22/69/2 21/70/2 24/71/2 23/72/2
f 21/73/4 22/74/4 12/75/4 13/76/4
o Skyscraper1Short_Cube.001
v 42.706123 6.791872 -9.999999
v 42.706123 6.791872 10.000001
v 44.095558 0.000000 -11.389435
v 44.095558 -0.000000 11.389436
v 21.316692 0.000000 -11.389440
v 21.316687 -0.000000 11.389433
v 44.095558 6.791872 -11.389434
v 44.095558 6.791872 11.389437
v 21.316687 6.791872 11.389433
v 21.316690 6.791872 -11.389439
v 29.454041 66.592323 0.415885
v 29.454041 66.592323 7.964140
v 25.509949 66.592323 7.964137
v 25.509949 66.592323 0.415884
v 29.454041 70.474373 0.415885
v 29.454041 70.474373 7.964140
v 25.509949 70.474373 0.415884
v 25.509949 70.474373 7.964137
v 36.480251 70.474373 -3.769221
v 28.931995 70.474373 -3.769221
v 36.480255 70.474373 -7.713312
v 28.931999 70.474373 -7.713314
v 28.931995 66.592323 -3.769221
v 36.480251 66.592323 -3.769221
v 36.480255 66.592323 -7.713312
v 28.931999 66.592323 -7.713314
v 42.706120 66.686714 10.000004
v 42.706127 66.686714 -9.999996
v 22.706123 6.791871 9.999999
v 22.706123 6.791871 -10.000001
v 22.706120 66.686707 9.999995
v 22.706127 66.686707 -10.000003
vt 0.280968 0.559235
vt 0.280968 0.314915
vt 0.525289 0.314915
vt 0.525289 0.559235
vt 0.542262 0.273509
vt 0.542262 0.029189
vt 0.559235 0.012216
vt 0.559235 0.290483
vt 0.297942 0.029189
vt 0.297942 0.273509
vt 0.280968 0.290483
vt 0.280968 0.012216
vt 0.666637 0.290483
vt 0.583667 0.290483
vt 0.583667 0.012216
vt 0.666637 0.012216
vt 0.657122 0.314915
vt 0.740092 0.314915
vt 0.740092 0.593182
vt 0.657122 0.593182
vt 0.847493 0.593182
vt 0.764524 0.593182
vt 0.764524 0.314915
vt 0.847493 0.314915
vt 0.632690 0.593182
vt 0.549721 0.593182
vt 0.549721 0.314915
vt 0.632690 0.314915
vt 0.352824 0.748489
vt 0.352824 0.700308
vt 0.400247 0.700308
vt 0.400247 0.748489
vt 0.329149 0.675876
vt 0.280968 0.675876
vt 0.280968 0.583667
vt 0.329149 0.583667
vt 0.549721 0.782436
vt 0.549721 0.734255
vt 0.597144 0.734255
vt 0.597144 0.782436
vt 0.597144 0.617614
vt 0.597144 0.709823
vt 0.549721 0.709823
vt 0.549721 0.617614
vt 0.738492 0.128858
vt 0.738492 0.221067
vt 0.691069 0.221067
vt 0.691069 0.128858
vt 0.352824 0.748489
vt 0.352824 0.700308
vt 0.400247 0.700308
vt 0.400247 0.748489
vt 0.738492 0.128858
vt 0.738492 0.221067
vt 0.691069 0.221067
vt 0.691069 0.128858
vt 0.597144 0.617614
vt 0.597144 0.709823
vt 0.549721 0.709823
vt 0.549721 0.617614
vt 0.549721 0.782436
vt 0.549721 0.734255
vt 0.597144 0.734255
vt 0.597144 0.782436
vt 0.329149 0.675876
vt 0.280968 0.675876
vt 0.280968 0.583667
vt 0.329149 0.583667
vt 0.012216 0.987784
vt 0.012216 0.256108
vt 0.256536 0.256108
vt 0.256536 0.987784
vt 0.012216 0.987784
vt 0.012216 0.256108
vt 0.256536 0.256108
vt 0.256536 0.987784
vt 0.012216 0.987784
vt 0.012216 0.256108
vt 0.256536 0.256108
vt 0.256536 0.987784
vt 0.012216 0.987784
vt 0.012216 0.256108
vt 0.256536 0.256108
vt 0.256536 0.987784
vn -0.0000 1.0000 0.0000
vn 0.0000 0.0000 -1.0000
vn -1.0000 -0.0000 -0.0000
vn -0.0000 -0.0000 1.0000
vn 1.0000 -0.0000 0.0000
usemtl Skyscraper1
s off
f 52/77/6 56/78/6 55/79/6 51/80/6
f 53/81/6 54/82/6 34/83/6 33/84/6
f 25/85/6 26/86/6 32/87/6 31/88/6
f 31/89/7 27/90/7 29/91/7 34/92/7
f 30/93/8 33/94/8 34/95/8 29/96/8
f 28/97/9 32/98/9 33/99/9 30/100/9
f 27/101/10 31/102/10 32/103/10 28/104/10
f 26/86/6 53/81/6 33/84/6 32/87/6
f 54/82/6 25/85/6 31/88/6 34/83/6
f 50/105/8 47/106/8 44/107/8 46/108/8
f 39/109/6 41/110/6 42/111/6 40/112/6
f 37/113/9 36/114/9 40/115/9 42/116/9
f 36/117/10 35/118/10 39/119/10 40/120/10
f 38/121/8 37/122/8 42/123/8 41/124/8
f 35/125/7 38/126/7 41/127/7 39/128/7
f 47/129/9 48/130/9 43/131/9 44/132/9
f 49/133/7 50/134/7 46/135/7 45/136/7
f 48/137/10 49/138/10 45/139/10 43/140/10
f 46/141/6 44/142/6 43/143/6 45/144/6
f 53/145/8 55/146/8 56/147/8 54/148/8
f 54/149/7 56/150/7 52/151/7 25/152/7
f 25/153/10 52/154/10 51/155/10 26/156/10
f 26/157/9 51/158/9 55/159/9 53/160/9
o Skyscraper1_Cube
v 10.000001 6.791872 -9.999999
v 9.999999 6.791872 10.000001
v 11.389436 0.000000 -11.389435
v 11.389435 -0.000000 11.389436
v -11.389431 0.000000 -11.389440
v -11.389437 -0.000000 11.389433
v 11.389437 6.791872 -11.389434
v 11.389435 6.791872 11.389437
v -11.389437 6.791872 11.389433
v -11.389433 6.791872 -11.389439
v -2.907016 86.727554 -3.774125
v -2.907018 86.727554 3.774130
v -6.851110 86.727554 3.774127
v -6.851109 86.727554 -3.774127
v -2.907016 90.609604 -3.774125
v -2.907018 90.609604 3.774130
v -6.851109 90.609604 -3.774127
v -6.851110 90.609604 3.774127
v -1.082204 90.609604 3.774127
v -1.082204 90.609604 -3.774127
v 2.861887 90.609604 3.774130
v 2.861889 90.609604 -3.774125
v -1.082204 86.727554 -3.774127
v -1.082204 86.727554 3.774127
v 2.861887 86.727554 3.774130
v 2.861889 86.727554 -3.774125
v 9.999996 86.651672 10.000004
v 10.000004 86.651665 -9.999996
v -10.000006 86.651657 9.999994
v -9.999996 86.651657 -10.000004
v -10.000001 6.791871 9.999999
v -9.999999 6.791871 -10.000001
vt 0.280968 0.559235
vt 0.280968 0.314915
vt 0.525289 0.314915
vt 0.525289 0.559235
vt 0.012216 0.987784
vt 0.012216 0.012216
vt 0.256536 0.012216
vt 0.256536 0.987784
vt 0.542262 0.273509
vt 0.542262 0.029189
vt 0.559235 0.012216
vt 0.559235 0.290483
vt 0.297942 0.029189
vt 0.297942 0.273509
vt 0.280968 0.290483
vt 0.280968 0.012216
vt 0.666637 0.290483
vt 0.583667 0.290483
vt 0.583667 0.012216
vt 0.666637 0.012216
vt 0.657122 0.314915
vt 0.740092 0.314915
vt 0.740092 0.593182
vt 0.657122 0.593182
vt 0.847493 0.593182
vt 0.764524 0.593182
vt 0.764524 0.314915
vt 0.847493 0.314915
vt 0.632690 0.593182
vt 0.549721 0.593182
vt 0.549721 0.314915
vt 0.632690 0.314915
vt 0.352824 0.748489
vt 0.352824 0.700308
vt 0.400247 0.700308
vt 0.400247 0.748489
vt 0.329149 0.675876
vt 0.280968 0.675876
vt 0.280968 0.583667
vt 0.329149 0.583667
vt 0.549721 0.782436
vt 0.549721 0.734255
vt 0.597144 0.734255
vt 0.597144 0.782436
vt 0.597144 0.617614
vt 0.597144 0.709823
vt 0.549721 0.709823
vt 0.549721 0.617614
vt 0.738492 0.128858
vt 0.738492 0.221067
vt 0.691069 0.221067
vt 0.691069 0.128858
vt 0.352824 0.748489
vt 0.352824 0.700308
vt 0.400247 0.700308
vt 0.400247 0.748489
vt 0.738492 0.128858
vt 0.738492 0.221067
vt 0.691069 0.221067
vt 0.691069 0.128858
vt 0.597144 0.617614
vt 0.597144 0.709823
vt 0.549721 0.709823
vt 0.549721 0.617614
vt 0.549721 0.782436
vt 0.549721 0.734255
vt 0.597144 0.734255
vt 0.597144 0.782436
vt 0.329149 0.675876
vt 0.280968 0.675876
vt 0.280968 0.583667
vt 0.329149 0.583667
vt 0.012216 0.987784
vt 0.012216 0.012216
vt 0.256536 0.012216
vt 0.256536 0.987784
vt 0.012216 0.987784
vt 0.012216 0.012216
vt 0.256536 0.012216
vt 0.256536 0.987784
vt 0.012216 0.987784
vt 0.012216 0.012216
vt 0.256536 0.012216
vt 0.256536 0.987784
vn -0.0000 1.0000 0.0000
vn -0.0000 0.0000 1.0000
vn 0.0000 0.0000 -1.0000
vn -1.0000 -0.0000 -0.0000
vn 1.0000 -0.0000 0.0000
usemtl Skyscraper1
s off
f 84/161/11 86/162/11 85/163/11 83/164/11
f 58/165/12 83/166/12 85/167/12 87/168/12
f 87/169/11 88/170/11 66/171/11 65/172/11
f 57/173/11 58/174/11 64/175/11 63/176/11
f 63/177/13 59/178/13 61/179/13 66/180/13
f 62/181/14 65/182/14 66/183/14 61/184/14
f 60/185/12 64/186/12 65/187/12 62/188/12
f 59/189/15 63/190/15 64/191/15 60/192/15
f 58/174/11 87/169/11 65/172/11 64/175/11
f 88/170/11 57/173/11 63/176/11 66/171/11
f 82/193/13 79/194/13 76/195/13 78/196/13
f 71/197/11 73/198/11 74/199/11 72/200/11
f 69/201/12 68/202/12 72/203/12 74/204/12
f 68/205/15 67/206/15 71/207/15 72/208/15
f 70/209/14 69/210/14 74/211/14 73/212/14
f 67/213/13 70/214/13 73/215/13 71/216/13
f 79/217/14 80/218/14 75/219/14 76/220/14
f 81/221/15 82/222/15 78/223/15 77/224/15
f 80/225/12 81/226/12 77/227/12 75/228/12
f 78/229/11 76/230/11 75/231/11 77/232/11
f 57/233/15 84/234/15 83/235/15 58/236/15
f 88/237/13 86/238/13 84/239/13 57/240/13
f 87/241/14 85/242/14 86/243/14 88/244/14
